<svg version="1.1" id="Layer_1" xmlns="http://www.w3.org/2000/svg" xmlns:xlink="http://www.w3.org/1999/xlink" x="0px" y="0px"
	 width="100%" viewBox="0 0 225 225" enable-background="new 0 0 225 225" xml:space="preserve">
<path fill="#C4DD82" opacity="1.000000" stroke="none" 
	d="
M0.999999,124.000000 
	C1.000000,118.311958 1.000000,112.623917 1.258483,106.180801 
	C1.665768,103.604553 1.814569,101.783386 1.991276,99.555618 
	C2.177095,97.796471 2.335009,96.443924 2.637413,94.779480 
	C2.899966,93.328056 3.018031,92.188545 3.303872,90.750893 
	C4.350906,87.863159 5.206173,85.284447 1.000000,85.000000 
	C1.000000,84.555557 1.000000,84.111107 1.384106,83.359787 
	C3.381241,81.692482 5.746659,80.645355 6.467778,78.913544 
	C8.730841,73.478691 9.813568,67.506134 12.422541,62.275028 
	C14.847418,57.413055 18.462038,53.090973 21.874306,48.785992 
	C29.140881,39.618340 35.612038,29.738871 46.203930,23.649443 
	C51.536747,20.583532 55.970184,15.916932 61.368992,13.012687 
	C66.416573,10.297379 72.138725,8.740390 77.687523,7.088568 
	C80.982292,6.107748 82.937363,4.527055 83.000000,1.000000 
	C83.444443,1.000000 83.888893,1.000000 84.791229,1.313958 
	C86.026756,6.604632 88.925804,3.388538 91.474060,3.121315 
	C94.590660,2.693637 97.291679,2.276809 100.381180,1.889663 
	C101.803398,1.875633 102.837128,1.831920 104.291603,1.850623 
	C106.122093,1.926795 107.531837,1.940551 109.401443,1.966991 
	C112.932838,1.966344 116.004364,1.953012 119.480736,1.948889 
	C120.969872,1.901092 122.054161,1.844085 123.554901,1.829053 
	C126.668945,2.109281 129.366547,2.347535 132.433945,2.682781 
	C133.869156,2.186516 134.934570,1.593260 136.000000,1.000002 
	C137.388885,1.000000 138.777786,1.000000 140.715363,1.314097 
	C144.431000,3.556593 147.413345,5.955825 150.813675,7.288898 
	C154.676208,8.803178 158.926224,9.312490 162.973022,10.389409 
	C163.656158,10.571206 164.243774,11.348228 164.739624,11.960339 
	C168.815979,16.992622 174.816422,18.310749 179.720871,21.072886 
	C181.800903,23.113508 183.880920,25.154129 186.129593,27.463303 
	C188.037369,29.215155 189.776489,30.698456 191.719147,32.447662 
	C192.892136,33.634476 193.861618,34.555382 194.960602,35.750240 
	C196.674057,37.693596 198.258026,39.362999 200.001038,41.334579 
	C204.137177,47.717087 209.901871,52.533970 212.470490,59.661808 
	C213.137848,61.513691 215.990021,62.555367 216.725723,64.410538 
	C218.013046,67.656685 218.088272,71.378609 219.338257,74.646057 
	C220.306137,77.176155 222.353546,79.279854 223.780609,81.657417 
	C224.123581,82.228790 223.909470,83.134521 223.660126,84.017654 
	C224.245804,89.432541 225.122910,94.716270 226.000000,100.000000 
	C226.000000,111.687561 226.000000,123.375122 225.654724,135.571426 
	C224.686356,137.538086 224.063248,138.996017 223.044647,141.379349 
	C224.873764,140.525635 225.436890,140.262817 226.000000,140.000000 
	C226.000000,141.388885 226.000000,142.777786 225.646637,144.685654 
	C222.408356,145.665421 221.127670,147.409393 219.940750,150.128616 
	C217.190430,156.429626 217.492661,163.567245 211.840286,169.249512 
	C204.238861,176.891129 198.383713,186.269806 191.501465,195.068192 
	C189.144608,197.151337 187.065323,199.069168 184.681488,201.130447 
	C173.092575,210.121124 160.704041,216.900772 146.634888,221.268784 
	C142.175140,222.871552 138.087570,224.435776 134.000000,226.000000 
	C116.979103,226.000000 99.958214,226.000000 82.331299,225.675446 
	C77.645683,217.642212 70.089516,217.874725 63.160206,216.876755 
	C61.556271,215.144135 60.203838,212.894058 58.216236,211.712143 
	C54.825504,209.695877 51.004478,208.415039 47.435612,206.678528 
	C46.506344,206.226349 45.792027,205.276062 45.065258,204.476166 
	C43.688232,202.960571 42.373642,201.388245 40.868462,199.566574 
	C38.956379,197.804626 37.208946,196.315567 35.304665,194.526154 
	C34.156075,193.327148 33.164326,192.428528 32.044273,191.254547 
	C30.343243,189.306000 28.770519,187.632828 27.040524,185.641663 
	C25.229982,183.836227 23.562155,182.364487 21.930609,180.853577 
	C21.278488,180.249680 20.572870,179.640488 20.119787,178.895035 
	C17.349930,174.337814 14.648442,169.739090 11.916864,165.158539 
	C11.422227,164.329086 10.670306,163.583145 10.417451,162.690857 
	C8.848973,157.156021 7.414908,151.583237 5.879531,146.038773 
	C5.316259,144.004715 4.598405,142.013474 3.956506,139.586792 
	C2.974630,134.113922 1.987314,129.056961 0.999999,124.000000 
M27.926682,82.847168 
	C27.926682,82.847168 27.732706,82.837288 27.732706,82.837288 
	C27.732706,82.837288 27.992477,83.005463 28.069515,83.154572 
	C28.069515,83.154572 28.266937,83.165413 28.266937,83.165413 
	C28.266937,83.165413 28.005161,82.992744 27.926682,82.847168 
M53.859764,175.985001 
	C53.859764,175.985001 53.758419,176.117035 54.087498,176.761887 
	C56.780643,177.870773 59.462128,179.907318 62.168793,179.941376 
	C83.247192,180.206451 104.330933,180.167435 125.411880,180.037735 
	C132.161392,179.996231 137.289017,175.193375 138.331070,168.487198 
	C138.660767,166.365417 138.693100,164.197433 139.309418,161.726212 
	C139.551849,161.450012 139.794281,161.173798 140.954086,160.710007 
	C148.436798,160.683777 155.922302,160.775635 163.401489,160.599564 
	C171.585632,160.406891 175.951294,156.767212 177.950439,148.498337 
	C177.950439,148.498337 177.900604,148.037094 178.074081,147.108994 
	C178.020416,118.062691 177.966766,89.016380 177.973236,59.504711 
	C177.973236,59.504711 177.874512,59.045982 177.933212,58.351429 
	C177.286652,56.907803 176.640091,55.464180 176.003723,54.000996 
	C176.003723,54.000996 175.984924,54.001602 175.843201,53.517727 
	C175.562027,53.373398 175.280853,53.229069 174.689758,52.593094 
	C174.150314,52.059402 173.610870,51.525711 172.883759,50.288937 
	C169.813721,49.235367 166.755569,47.311466 163.671738,47.269382 
	C143.555344,46.994850 123.432884,47.045258 103.313477,47.166706 
	C94.498817,47.219913 89.129898,52.781387 88.878433,61.543606 
	C88.832047,63.159828 88.707657,64.773811 88.581367,67.081154 
	C81.851479,67.081154 75.413567,67.081154 68.501907,66.986748 
	C68.501907,66.986748 68.028671,67.083649 67.154915,66.931236 
	C65.091553,66.995522 63.028198,67.059814 60.506851,67.082047 
	C60.506851,67.082047 60.073799,67.236923 59.371662,67.286293 
	C51.949791,70.278091 49.131363,74.369507 49.120167,82.598404 
	C49.083225,109.753487 49.081631,136.908707 49.149330,164.063675 
	C49.155045,166.356079 49.778141,168.646957 50.154682,171.569626 
	C51.013775,172.727020 51.872868,173.884415 52.987114,175.573547 
	C53.325813,175.738846 53.664513,175.904129 53.859764,175.985001 
M185.940170,151.612869 
	C185.634445,151.741913 185.328735,151.870956 184.288940,152.039932 
	C182.962601,153.059265 180.679764,153.974335 180.554367,155.124573 
	C180.400940,156.532104 182.055283,158.136688 183.423965,160.519638 
	C185.185898,157.007034 189.639221,155.790161 185.940170,151.612869 
M193.303802,142.137054 
	C191.495834,144.271027 189.687866,146.404999 187.879898,148.538956 
	C188.124435,149.063599 188.368958,149.588226 188.613480,150.112869 
	C191.291794,149.472229 193.970108,148.831589 197.068527,148.090454 
	C195.744919,145.461609 194.874283,143.732437 194.542709,141.864822 
	C194.880646,141.351379 195.218597,140.837952 195.556534,140.324509 
	C195.294693,140.195175 195.032852,140.065826 194.770996,139.936493 
	C194.512772,140.623108 194.254562,141.309723 193.303802,142.137054 
M58.000000,58.000000 
	C58.000000,58.000000 57.995457,57.996784 57.956402,57.362156 
	C56.041775,52.167007 55.308792,59.200600 53.677513,57.689034 
	C53.242496,56.552773 52.772587,55.325363 51.862125,52.947235 
	C50.638256,57.572868 50.244209,61.140114 53.787724,62.823902 
	C55.706154,63.735500 58.903450,63.264111 60.956551,62.258450 
	C63.626751,60.950523 64.768562,58.177071 63.428757,55.022232 
	C62.105087,51.905373 59.974110,50.343327 56.402832,51.336487 
	C57.926929,53.406666 62.597687,54.628838 58.000000,58.000000 
M165.331146,166.202850 
	C161.393356,169.337814 163.100555,172.368576 165.763123,175.029495 
	C168.347122,177.611908 172.772690,177.070343 175.073029,174.225006 
	C177.493317,171.231308 177.235886,167.203369 174.188293,164.914841 
	C171.248856,162.707520 168.195587,161.692551 166.000000,166.000000 
	C166.000000,166.000000 166.004715,165.995270 165.331146,166.202850 
M155.411270,180.282455 
	C153.590591,181.958572 151.677170,183.547775 149.989563,185.348618 
	C149.183426,186.208862 148.368256,187.476822 148.382919,188.548813 
	C148.393311,189.306656 149.809784,190.667282 150.564041,190.643967 
	C151.636459,190.610748 152.784180,189.680313 153.703323,188.901428 
	C154.759033,188.006821 155.459229,186.666687 156.561905,185.858536 
	C159.538239,183.677170 159.114471,181.950775 155.411270,180.282455 
M204.107742,138.312485 
	C205.973007,136.654465 208.110565,135.201859 209.584167,133.248398 
	C210.280090,132.325851 209.703506,130.443390 209.703491,128.995865 
	C208.306320,129.188431 206.688782,129.009460 205.570694,129.672577 
	C204.322021,130.413147 203.717453,132.194427 202.497131,133.036865 
	C199.259277,135.272125 199.374512,136.302460 204.107742,138.312485 
M93.570061,16.078932 
	C92.139259,17.599134 90.345413,18.927090 89.403351,20.706106 
	C88.758980,21.922953 89.301849,23.768494 89.313957,25.332968 
	C91.940697,23.513044 94.744003,21.884737 97.071518,19.740074 
	C97.662262,19.195745 96.826271,16.981958 96.411064,15.606126 
	C96.353172,15.414297 94.942810,15.630622 93.570061,16.078932 
M37.857658,72.223763 
	C37.319530,73.804001 36.781403,75.384247 36.243279,76.964485 
	C37.828709,76.524879 39.457157,76.194809 40.980305,75.596626 
	C41.677849,75.322685 42.252487,74.584930 42.735073,73.945915 
	C43.740753,72.614243 44.709114,71.241577 45.504353,69.783005 
	C45.586723,69.631935 44.133949,68.224976 43.845158,68.360840 
	C42.364571,69.057373 41.024845,70.057800 39.651943,70.976021 
	C39.243752,71.249023 38.887566,71.599800 37.857658,72.223763 
M40.557560,182.231628 
	C39.432224,183.353241 38.228687,184.408951 37.208828,185.619415 
	C36.519573,186.437500 35.545822,187.570099 35.690804,188.385773 
	C35.845398,189.255478 37.093273,190.388107 38.000977,190.530228 
	C38.809490,190.656830 39.902260,189.699814 40.695503,189.018372 
	C41.847027,188.029190 42.995178,186.964722 43.856426,185.731079 
	C44.574688,184.702209 44.878326,183.383896 45.365601,182.193771 
	C43.901546,182.018753 42.437492,181.843750 40.557560,182.231628 
M68.968025,45.435848 
	C70.166710,45.314724 72.194267,45.547729 72.423058,45.012222 
	C73.513359,42.460247 74.114777,39.699398 74.890129,37.012859 
	C72.007301,38.135838 70.163498,39.274498 68.982224,40.895859 
	C68.281082,41.858208 68.624123,43.581318 68.968025,45.435848 
M180.312912,43.176945 
	C183.029282,48.135098 183.413925,48.021152 188.095154,40.782871 
	C187.379898,39.938126 186.640533,39.064930 185.711151,37.967293 
	C183.840210,39.519207 182.052521,41.002083 180.312912,43.176945 
M134.102386,203.918045 
	C131.907166,205.221283 129.711929,206.524506 127.516693,207.827728 
	C128.650818,209.389908 129.784927,210.952087 130.919052,212.514267 
	C131.523361,212.414932 132.127686,212.315598 132.732010,212.216248 
	C133.262680,209.614395 133.793365,207.012527 134.102386,203.918045 
M79.034767,37.830334 
	C80.657028,36.802498 82.279289,35.774666 84.824127,34.162312 
	C82.715935,32.651039 81.331848,31.248053 79.667496,30.706747 
	C79.142853,30.536114 77.261192,32.590199 77.096046,33.778351 
	C76.909599,35.119785 77.957451,36.632782 79.034767,37.830334 
M137.459885,202.122620 
	C139.667770,201.578552 141.875656,201.034485 144.083557,200.490402 
	C142.033737,199.229111 140.427475,198.811172 139.033279,199.184738 
	C138.176208,199.414383 137.643387,200.854202 137.459885,202.122620 
M25.967600,89.343887 
	C30.640306,87.167267 24.851692,86.903198 25.461832,85.844337 
	C24.311718,86.866882 23.117331,87.928780 21.873562,89.034592 
	C23.142731,89.161163 24.266163,89.273201 25.967600,89.343887 
M19.665373,92.258286 
	C19.791983,93.401024 19.918592,94.543770 20.045202,95.686508 
	C20.521179,95.541817 20.997154,95.397125 21.473131,95.252434 
	C20.996008,94.113739 20.518885,92.975044 19.665373,92.258286 
M30.556051,87.976601 
	C30.838736,87.434387 31.121420,86.892166 31.404102,86.349953 
	C31.137247,86.227310 30.870392,86.104668 30.603539,85.982018 
	C30.479067,86.536667 30.354595,87.091316 30.556051,87.976601 
M143.278671,193.345184 
	C143.372009,192.946548 143.465332,192.547897 143.558670,192.149261 
	C143.290878,192.158478 143.023102,192.167694 142.755310,192.176910 
	C142.790176,192.572617 142.825058,192.968307 143.278671,193.345184 
M17.085438,93.384773 
	C17.085438,93.384773 16.849762,93.549736 16.849762,93.549736 
	C16.849762,93.549736 17.154760,93.529068 17.085438,93.384773 
M145.471237,196.495392 
	C145.471237,196.495392 145.515686,196.477676 145.471237,196.495392 
M18.496695,99.529129 
	C18.496695,99.529129 18.478968,99.483482 18.496695,99.529129 
z"/>
<path fill="#F5F5F4" opacity="1.000000" stroke="none" 
	d="
M82.531342,1.000000 
	C82.937363,4.527055 80.982292,6.107748 77.687523,7.088568 
	C72.138725,8.740390 66.416573,10.297379 61.368992,13.012687 
	C55.970184,15.916932 51.536747,20.583532 46.203930,23.649443 
	C35.612038,29.738871 29.140881,39.618340 21.874306,48.785992 
	C18.462038,53.090973 14.847418,57.413055 12.422541,62.275028 
	C9.813568,67.506134 8.730841,73.478691 6.467778,78.913544 
	C5.746659,80.645355 3.381241,81.692482 1.384106,83.026451 
	C1.000000,55.739769 1.000000,28.479540 1.000000,1.000000 
	C28.020498,1.000000 55.041592,1.000000 82.531342,1.000000 
z"/>
<path fill="#F5F5F5" opacity="1.000000" stroke="none" 
	d="
M191.779022,194.902893 
	C198.383713,186.269806 204.238861,176.891129 211.840286,169.249512 
	C217.492661,163.567245 217.190430,156.429626 219.940750,150.128616 
	C221.127670,147.409393 222.408356,145.665421 225.646637,145.102325 
	C226.000000,171.925964 226.000000,198.851944 226.000000,226.000000 
	C199.979523,226.000000 173.958420,226.000000 147.469177,225.601257 
	C147.003036,223.878433 147.005051,222.554337 147.007065,221.230255 
	C160.704041,216.900772 173.092575,210.121124 184.942963,201.355469 
	C188.958740,204.766891 190.879013,201.669434 192.789307,199.528946 
	C194.342636,197.788437 194.606293,195.898468 191.779022,194.902893 
z"/>
<path fill="#F5F5F5" opacity="1.000000" stroke="none" 
	d="
M194.831100,35.476284 
	C193.861618,34.555382 192.892136,33.634476 192.085648,32.326199 
	C196.977859,27.890165 190.632797,27.968550 189.791229,26.134764 
	C188.054611,22.350607 186.518372,24.047289 185.960953,27.194750 
	C183.880920,25.154129 181.800903,23.113508 179.720871,21.072886 
	C174.816422,18.310749 168.815979,16.992622 164.739624,11.960339 
	C164.243774,11.348228 163.656158,10.571206 162.973022,10.389409 
	C158.926224,9.312490 154.676208,8.803178 150.813675,7.288898 
	C147.413345,5.955825 144.431000,3.556593 141.132034,1.314097 
	C169.260666,1.000000 197.521317,1.000000 226.000000,1.000000 
	C226.000000,29.353855 226.000000,57.708271 225.677856,86.424095 
	C224.887665,85.819168 224.419617,84.852829 223.951553,83.886490 
	C223.909470,83.134521 224.123581,82.228790 223.780609,81.657417 
	C222.353546,79.279854 220.306137,77.176155 219.338257,74.646057 
	C218.088272,71.378609 218.013046,67.656685 216.725723,64.410538 
	C215.990021,62.555367 213.137848,61.513691 212.470490,59.661808 
	C209.901871,52.533970 204.137177,47.717087 200.378983,41.296059 
	C201.347885,39.920799 202.930359,38.238529 202.711761,37.957581 
	C201.366699,36.228775 199.738831,34.623608 197.904510,33.445030 
	C197.487320,33.176971 195.886902,34.750427 194.831100,35.476284 
z"/>
<path fill="#F5F5F5" opacity="1.000000" stroke="none" 
	d="
M32.172577,191.529907 
	C33.164326,192.428528 34.156075,193.327148 34.927727,194.654175 
	C34.356308,196.627396 33.225182,198.694763 33.830704,199.598419 
	C34.816177,201.069077 36.856918,202.001709 38.638912,202.642258 
	C39.048248,202.789398 40.214958,200.829636 41.033119,199.839478 
	C42.373642,201.388245 43.688232,202.960571 45.065258,204.476166 
	C45.792027,205.276062 46.506344,206.226349 47.435612,206.678528 
	C51.004478,208.415039 54.825504,209.695877 58.216236,211.712143 
	C60.203838,212.894058 61.556271,215.144135 63.160206,216.876755 
	C70.089516,217.874725 77.645683,217.642212 81.862640,225.675446 
	C55.070915,226.000000 28.141827,226.000000 1.000000,226.000000 
	C1.000000,197.646133 1.000000,169.291718 1.369063,140.468979 
	C2.475772,140.001328 3.213418,140.002014 3.951065,140.002701 
	C4.598405,142.013474 5.316259,144.004715 5.879531,146.038773 
	C7.414908,151.583237 8.848973,157.156021 10.417451,162.690857 
	C10.670306,163.583145 11.422227,164.329086 11.916864,165.158539 
	C14.648442,169.739090 17.349930,174.337814 20.119787,178.895035 
	C20.572870,179.640488 21.278488,180.249680 21.930609,180.853577 
	C23.562155,182.364487 25.229982,183.836227 26.663158,185.680054 
	C24.066540,186.672775 23.330637,187.784256 25.379805,189.704132 
	C26.292480,190.559235 27.334988,191.314606 28.089609,192.292007 
	C30.036015,194.813065 31.231199,194.024155 32.172577,191.529907 
z"/>
<path fill="#F3F3F3" opacity="1.000000" stroke="none" 
	d="
M146.634888,221.268784 
	C147.005051,222.554337 147.003036,223.878433 147.000519,225.601257 
	C142.975449,226.000000 138.950912,226.000000 134.463181,226.000000 
	C138.087570,224.435776 142.175140,222.871552 146.634888,221.268784 
z"/>
<path fill="#F3F4F1" opacity="1.000000" stroke="none" 
	d="
M3.956505,139.586792 
	C3.213418,140.002014 2.475772,140.001328 1.369063,140.000320 
	C1.000000,134.977905 1.000000,129.955811 0.999999,124.466858 
	C1.987314,129.056961 2.974630,134.113922 3.956505,139.586792 
z"/>
<path fill="#F1F3EE" opacity="1.000000" stroke="none" 
	d="
M223.660126,84.017654 
	C224.419617,84.852829 224.887665,85.819168 225.677856,86.892754 
	C226.000000,91.024544 226.000000,95.049088 226.000000,99.536819 
	C225.122910,94.716270 224.245804,89.432541 223.660126,84.017654 
z"/>
<path fill="#FCFDFB" opacity="1.000000" stroke="none" 
	d="
M91.058472,3.132166 
	C88.925804,3.388538 86.026756,6.604632 85.124557,1.313958 
	C86.714355,1.000000 88.428719,1.000000 90.576591,1.355304 
	C91.026230,2.184460 91.042351,2.658313 91.058472,3.132166 
z"/>
<path fill="#FCFDFB" opacity="1.000000" stroke="none" 
	d="
M1.000000,85.428467 
	C5.206173,85.284447 4.350906,87.863159 2.946911,90.738693 
	C1.948116,91.016418 1.474058,91.008209 1.000000,91.000000 
	C1.000000,89.285645 1.000000,87.571281 1.000000,85.428467 
z"/>
<path fill="#F3F4F1" opacity="1.000000" stroke="none" 
	d="
M91.474060,3.121315 
	C91.042351,2.658313 91.026230,2.184460 91.005051,1.355304 
	C93.700012,1.000000 96.400032,1.000000 99.549118,1.215003 
	C99.998199,1.430005 99.992691,1.859979 99.992691,1.859980 
	C97.291679,2.276809 94.590660,2.693637 91.474060,3.121315 
z"/>
<path fill="#EEEFEB" opacity="1.000000" stroke="none" 
	d="
M132.064178,2.585788 
	C129.366547,2.347535 126.668945,2.109281 123.520966,1.632609 
	C123.070595,1.394191 123.000000,1.000000 123.000000,1.000000 
	C125.700012,1.000000 128.400024,1.000000 131.556641,1.264801 
	C132.030228,1.881664 132.047195,2.233726 132.064178,2.585788 
z"/>
<path fill="#CDE294" opacity="1.000000" stroke="none" 
	d="
M119.075897,1.939680 
	C116.004364,1.953012 112.932838,1.966344 109.420624,1.729007 
	C108.979950,1.478338 109.000000,1.000000 109.000000,1.000000 
	C112.030594,1.000000 115.061188,1.000000 118.560890,1.235241 
	C119.029999,1.470482 119.075897,1.939680 119.075897,1.939680 
z"/>
<path fill="#FCFDFB" opacity="1.000000" stroke="none" 
	d="
M226.000000,139.600006 
	C225.436890,140.262817 224.873764,140.525635 223.044647,141.379349 
	C224.063248,138.996017 224.686356,137.538086 225.654724,136.040085 
	C226.000000,137.066666 226.000000,138.133347 226.000000,139.600006 
z"/>
<path fill="#EEEFEB" opacity="1.000000" stroke="none" 
	d="
M1.000000,91.399986 
	C1.474058,91.008209 1.948116,91.016418 2.779134,91.036835 
	C3.018031,92.188545 2.899966,93.328056 2.262812,94.760391 
	C1.495815,95.035484 1.247908,95.017738 1.000000,95.000000 
	C1.000000,93.933327 1.000000,92.866646 1.000000,91.399986 
z"/>
<path fill="#FFFFFF" opacity="1.000000" stroke="none" 
	d="
M132.433960,2.682780 
	C132.047195,2.233726 132.030228,1.881664 132.006622,1.264801 
	C133.066666,1.000000 134.133347,1.000000 135.600006,1.000002 
	C134.934570,1.593260 133.869156,2.186516 132.433960,2.682780 
z"/>
<path fill="#DCE8BC" opacity="1.000000" stroke="none" 
	d="
M1.963371,99.962219 
	C1.814569,101.783386 1.665768,103.604553 1.258483,105.712860 
	C1.000000,104.285645 1.000000,102.571281 1.241585,100.437927 
	C1.483169,100.018936 1.963371,99.962219 1.963371,99.962219 
z"/>
<path fill="#FCFDFB" opacity="1.000000" stroke="none" 
	d="
M1.991276,99.555618 
	C1.963371,99.962219 1.483169,100.018936 1.241585,100.009468 
	C1.000000,98.611107 1.000000,97.222221 1.000000,95.416664 
	C1.247908,95.017738 1.495815,95.035484 2.118323,95.072304 
	C2.335009,96.443924 2.177095,97.796471 1.991276,99.555618 
z"/>
<path fill="#DCE8BC" opacity="1.000000" stroke="none" 
	d="
M108.583336,1.000000 
	C109.000000,1.000000 108.979950,1.478338 108.960770,1.716322 
	C107.531837,1.940551 106.122093,1.926795 104.323334,1.653966 
	C103.934319,1.394893 104.000000,1.000000 104.000000,1.000000 
	C105.388893,1.000000 106.777779,1.000000 108.583336,1.000000 
z"/>
<path fill="#EEEFEB" opacity="1.000000" stroke="none" 
	d="
M103.600006,1.000000 
	C104.000000,1.000000 103.934319,1.394893 103.902588,1.591550 
	C102.837128,1.831920 101.803398,1.875633 100.381180,1.889663 
	C99.992691,1.859979 99.998199,1.430005 99.999100,1.215003 
	C101.066673,1.000000 102.133339,1.000000 103.600006,1.000000 
z"/>
<path fill="#DCE8BC" opacity="1.000000" stroke="none" 
	d="
M119.480736,1.948889 
	C119.075897,1.939680 119.029999,1.470482 119.014999,1.235241 
	C120.066673,1.000000 121.133339,1.000000 122.600006,1.000000 
	C123.000000,1.000000 123.070595,1.394191 123.104523,1.590635 
	C122.054161,1.844085 120.969872,1.901092 119.480736,1.948889 
z"/>
<path fill="#4D4739" opacity="1.000000" stroke="none" 
	d="
M50.114410,170.938538 
	C49.778141,168.646957 49.155045,166.356079 49.149330,164.063675 
	C49.081631,136.908707 49.083225,109.753487 49.120167,82.598404 
	C49.131363,74.369507 51.949791,70.278091 59.834236,67.333313 
	C60.567200,67.463821 60.789875,67.378410 60.964840,67.124100 
	C63.028198,67.059814 65.091553,66.995522 67.700104,67.098351 
	C68.245285,67.265465 68.633949,67.317993 68.633949,67.317993 
	C68.633949,67.317993 68.975647,67.081154 68.975647,67.081154 
	C75.413567,67.081154 81.851479,67.081154 88.581367,67.081154 
	C88.707657,64.773811 88.832047,63.159828 88.878433,61.543606 
	C89.129898,52.781387 94.498817,47.219913 103.313477,47.166706 
	C123.432884,47.045258 143.555344,46.994850 163.671738,47.269382 
	C166.755569,47.311466 169.813721,49.235367 172.605225,50.653755 
	C171.213364,51.390282 170.100037,51.761993 168.619110,52.035713 
	C167.508408,51.946468 166.765305,51.955212 165.630814,51.835678 
	C163.424606,51.554447 161.610016,51.271893 159.794922,51.268593 
	C141.647934,51.235638 123.500862,51.240036 105.353828,51.252323 
	C96.199989,51.258522 93.007355,54.432644 93.002159,63.500454 
	C92.989662,85.309906 92.988342,107.119354 92.977882,128.928802 
	C92.976784,131.223770 93.406929,133.762100 89.771545,134.075943 
	C89.117760,131.224182 88.822235,128.636688 88.495895,125.779465 
	C85.822571,125.912788 83.372879,126.034958 80.467377,126.089775 
	C76.515732,126.017601 72.993614,126.257477 69.537125,125.886269 
	C68.174828,125.739967 66.958946,124.230324 65.676392,123.341499 
	C65.950912,122.843071 66.225426,122.344635 66.499947,121.846199 
	C71.307846,121.846199 76.115746,121.846199 81.348557,121.898651 
	C84.116241,121.563774 86.459015,121.176430 88.610786,120.820663 
	C88.610786,111.899063 88.610786,103.648407 88.610786,95.153099 
	C85.848297,95.153099 83.385796,95.153099 80.466621,95.092758 
	C76.514618,95.026917 72.992584,95.267921 69.537209,94.893639 
	C68.169792,94.745514 66.950577,93.229271 65.663879,92.335953 
	C65.943039,91.838470 66.222191,91.340981 66.501343,90.843498 
	C71.308403,90.843498 76.115463,90.843498 81.363281,90.893799 
	C84.307236,90.311180 88.462578,92.894760 88.809097,88.029648 
	C89.202835,82.501694 88.900047,76.924126 88.900047,71.167953 
	C85.807777,71.167953 83.361580,71.167953 80.456795,71.098083 
	C74.848595,71.017975 69.698921,70.988159 64.549377,71.002098 
	C56.944168,71.022682 53.311089,74.613693 53.287663,82.292160 
	C53.242554,97.077408 53.313255,111.863014 53.262856,126.648232 
	C53.217007,140.097519 53.074242,153.546463 52.665962,167.091553 
	C51.609955,168.437866 50.862183,169.688202 50.114410,170.938538 
z"/>
<path fill="#524C3F" opacity="1.000000" stroke="none" 
	d="
M175.993530,54.020554 
	C176.640091,55.464180 177.286652,56.907803 177.806671,58.804512 
	C177.548492,59.539291 177.626160,59.776787 177.913101,59.970078 
	C177.966766,89.016380 178.020416,118.062691 177.883392,147.670074 
	C177.530273,148.494980 177.582306,148.734924 177.848801,148.950989 
	C175.951294,156.767212 171.585632,160.406891 163.401489,160.599564 
	C155.922302,160.775635 148.436798,160.683777 140.175262,160.839584 
	C139.218124,161.329636 139.039825,161.690125 138.861526,162.050598 
	C138.693100,164.197433 138.660767,166.365417 138.331070,168.487198 
	C137.289017,175.193375 132.161392,179.996231 125.411880,180.037735 
	C104.330933,180.167435 83.247192,180.206451 62.168793,179.941376 
	C59.462128,179.907318 56.780643,177.870773 54.283634,176.310913 
	C55.029030,175.080551 55.578293,174.301163 56.475876,173.706955 
	C58.822250,174.581421 60.816124,175.855484 62.819000,175.869781 
	C83.484474,176.017365 104.151665,176.018158 124.817757,175.924271 
	C130.351196,175.899139 133.374420,172.740448 134.154251,166.529816 
	C134.265976,164.483582 134.265976,162.881546 134.265976,160.625031 
	C124.484924,160.625031 115.247841,160.737686 106.016258,160.561829 
	C102.926628,160.502975 99.287933,160.593475 96.885254,159.066132 
	C91.750069,155.801788 86.497589,156.516174 80.728371,156.719742 
	C79.031029,156.578659 77.706367,156.579315 76.256470,156.310364 
	C75.435822,155.346405 74.740402,154.652054 74.075974,153.698212 
	C74.127472,153.093781 74.147964,152.748856 74.592896,152.348602 
	C77.012863,152.198517 79.008392,152.103745 81.393929,152.096527 
	C84.322701,152.184082 86.861458,152.184082 88.545082,152.184082 
	C89.065575,146.691315 89.534874,141.738770 90.417038,136.829865 
	C91.558311,138.668549 92.879272,140.450516 92.919197,142.260742 
	C93.183014,154.222626 95.207718,156.304520 107.295708,156.304932 
	C116.248009,156.305237 125.200706,156.357315 134.152512,156.291183 
	C144.417282,156.215347 154.681259,156.034485 165.318481,155.989578 
	C171.860916,154.525406 173.929855,151.782791 173.954056,144.998932 
	C174.055099,116.682587 174.141220,88.366180 174.557434,59.891998 
	C175.252563,57.829655 175.623047,55.925102 175.993530,54.020554 
z"/>
<path fill="#CCE293" opacity="1.000000" stroke="none" 
	d="
M165.995300,166.005142 
	C168.195587,161.692551 171.248856,162.707520 174.188293,164.914841 
	C177.235886,167.203369 177.493317,171.231308 175.073029,174.225006 
	C172.772690,177.070343 168.347122,177.611908 165.763123,175.029495 
	C163.100555,172.368576 161.393356,169.337814 165.666672,166.470718 
	C166.151398,168.125458 166.300598,169.512329 166.462692,171.019028 
	C167.859253,170.303131 168.763672,169.643143 169.770721,169.387314 
	C170.533936,169.193405 171.428024,169.514709 172.263870,169.606750 
	C172.017563,168.460403 171.999298,166.461258 171.483368,166.323334 
	C169.749603,165.859741 167.838531,166.059326 165.995300,166.005142 
z"/>
<path fill="#CDE294" opacity="1.000000" stroke="none" 
	d="
M58.003418,58.004730 
	C62.597687,54.628838 57.926929,53.406666 56.402832,51.336487 
	C59.974110,50.343327 62.105087,51.905373 63.428757,55.022232 
	C64.768562,58.177071 63.626751,60.950523 60.956551,62.258450 
	C58.903450,63.264111 55.706154,63.735500 53.787724,62.823902 
	C50.244209,61.140114 50.638256,57.572868 51.862125,52.947235 
	C52.772587,55.325363 53.242496,56.552773 53.677513,57.689034 
	C55.308792,59.200600 56.041775,52.167007 57.903145,57.717930 
	C57.849892,58.073704 57.839264,58.265137 57.839264,58.265137 
	C57.839264,58.265137 58.003418,58.004730 58.003418,58.004730 
z"/>
<path fill="#CAE18F" opacity="1.000000" stroke="none" 
	d="
M155.759796,180.316345 
	C159.114471,181.950775 159.538239,183.677170 156.561905,185.858536 
	C155.459229,186.666687 154.759033,188.006821 153.703323,188.901428 
	C152.784180,189.680313 151.636459,190.610748 150.564041,190.643967 
	C149.809784,190.667282 148.393311,189.306656 148.382919,188.548813 
	C148.368256,187.476822 149.183426,186.208862 149.989563,185.348618 
	C151.677170,183.547775 153.590591,181.958572 155.759796,180.316345 
z"/>
<path fill="#CAE08E" opacity="1.000000" stroke="none" 
	d="
M203.768478,138.414917 
	C199.374512,136.302460 199.259277,135.272125 202.497131,133.036865 
	C203.717453,132.194427 204.322021,130.413147 205.570694,129.672577 
	C206.688782,129.009460 208.306320,129.188431 209.703491,128.995865 
	C209.703506,130.443390 210.280090,132.325851 209.584167,133.248398 
	C208.110565,135.201859 205.973007,136.654465 203.768478,138.414917 
z"/>
<path fill="#CAE18F" opacity="1.000000" stroke="none" 
	d="
M93.864296,15.868469 
	C94.942810,15.630622 96.353172,15.414297 96.411064,15.606126 
	C96.826271,16.981958 97.662262,19.195745 97.071518,19.740074 
	C94.744003,21.884737 91.940697,23.513044 89.313950,25.332970 
	C89.301849,23.768494 88.758980,21.922953 89.403351,20.706106 
	C90.345413,18.927090 92.139259,17.599134 93.864296,15.868469 
z"/>
<path fill="#CAE18F" opacity="1.000000" stroke="none" 
	d="
M38.182606,72.069351 
	C38.887566,71.599800 39.243752,71.249023 39.651943,70.976021 
	C41.024845,70.057800 42.364571,69.057373 43.845158,68.360840 
	C44.133949,68.224976 45.586723,69.631935 45.504353,69.783005 
	C44.709114,71.241577 43.740753,72.614243 42.735073,73.945915 
	C42.252487,74.584930 41.677849,75.322685 40.980305,75.596626 
	C39.457157,76.194809 37.828709,76.524879 36.243279,76.964485 
	C36.781403,75.384247 37.319530,73.804001 38.182606,72.069351 
z"/>
<path fill="#CAE18F" opacity="1.000000" stroke="none" 
	d="
M40.765499,181.950180 
	C42.437492,181.843750 43.901546,182.018753 45.365601,182.193771 
	C44.878326,183.383896 44.574688,184.702209 43.856426,185.731079 
	C42.995178,186.964722 41.847027,188.029190 40.695503,189.018372 
	C39.902260,189.699814 38.809490,190.656830 38.000977,190.530228 
	C37.093273,190.388107 35.845398,189.255478 35.690804,188.385773 
	C35.545822,187.570099 36.519573,186.437500 37.208828,185.619415 
	C38.228687,184.408951 39.432224,183.353241 40.765499,181.950180 
z"/>
<path fill="#CAE08E" opacity="1.000000" stroke="none" 
	d="
M68.732849,45.199112 
	C68.624123,43.581318 68.281082,41.858208 68.982224,40.895859 
	C70.163498,39.274498 72.007301,38.135838 74.890129,37.012859 
	C74.114777,39.699398 73.513359,42.460247 72.423058,45.012222 
	C72.194267,45.547729 70.166710,45.314724 68.732849,45.199112 
z"/>
<path fill="#EEEFEB" opacity="1.000000" stroke="none" 
	d="
M40.868462,199.566574 
	C40.214958,200.829636 39.048248,202.789398 38.638912,202.642258 
	C36.856918,202.001709 34.816177,201.069077 33.830704,199.598419 
	C33.225182,198.694763 34.356308,196.627396 35.084572,194.954529 
	C37.208946,196.315567 38.956379,197.804626 40.868462,199.566574 
z"/>
<path fill="#EEEFEB" opacity="1.000000" stroke="none" 
	d="
M194.960602,35.750237 
	C195.886902,34.750427 197.487320,33.176971 197.904510,33.445030 
	C199.738831,34.623608 201.366699,36.228775 202.711761,37.957581 
	C202.930359,38.238529 201.347885,39.920799 200.219940,40.993881 
	C198.258026,39.362999 196.674057,37.693596 194.960602,35.750237 
z"/>
<path fill="#CAE08E" opacity="1.000000" stroke="none" 
	d="
M180.288864,42.830948 
	C182.052521,41.002083 183.840210,39.519207 185.711151,37.967293 
	C186.640533,39.064930 187.379898,39.938126 188.095154,40.782871 
	C183.413925,48.021152 183.029282,48.135098 180.288864,42.830948 
z"/>
<path fill="#CBE191" opacity="1.000000" stroke="none" 
	d="
M134.213211,204.164368 
	C133.793365,207.012527 133.262680,209.614395 132.732010,212.216248 
	C132.127686,212.315598 131.523361,212.414932 130.919052,212.514267 
	C129.784927,210.952087 128.650818,209.389908 127.516693,207.827728 
	C129.711929,206.524506 131.907166,205.221283 134.213211,204.164368 
z"/>
<path fill="#FCFDFB" opacity="1.000000" stroke="none" 
	d="
M191.501465,195.068192 
	C194.606293,195.898468 194.342636,197.788437 192.789307,199.528946 
	C190.879013,201.669434 188.958740,204.766891 185.247482,201.212036 
	C187.065323,199.069168 189.144608,197.151337 191.501465,195.068192 
z"/>
<path fill="#CCE293" opacity="1.000000" stroke="none" 
	d="
M194.003662,142.003265 
	C194.874283,143.732437 195.744919,145.461609 197.068527,148.090454 
	C193.970108,148.831589 191.291794,149.472229 188.613480,150.112869 
	C188.368958,149.588226 188.124435,149.063599 187.879898,148.538956 
	C189.687866,146.404999 191.495834,144.271027 193.651901,142.068527 
	C194.000000,142.000000 194.003662,142.003265 194.003662,142.003265 
z"/>
<path fill="#CAE08E" opacity="1.000000" stroke="none" 
	d="
M186.006104,151.999390 
	C189.639221,155.790161 185.185898,157.007034 183.423965,160.519638 
	C182.055283,158.136688 180.400940,156.532104 180.554367,155.124573 
	C180.679764,153.974335 182.962601,153.059265 184.901611,152.019440 
	C185.514282,151.998962 186.006104,151.999390 186.006104,151.999390 
z"/>
<path fill="#CAE08E" opacity="1.000000" stroke="none" 
	d="
M78.751633,37.950752 
	C77.957451,36.632782 76.909599,35.119785 77.096046,33.778351 
	C77.261192,32.590199 79.142853,30.536114 79.667496,30.706747 
	C81.331848,31.248053 82.715935,32.651039 84.824127,34.162312 
	C82.279289,35.774666 80.657028,36.802498 78.751633,37.950752 
z"/>
<path fill="#EEEFEB" opacity="1.000000" stroke="none" 
	d="
M32.044273,191.254547 
	C31.231199,194.024155 30.036015,194.813065 28.089609,192.292007 
	C27.334988,191.314606 26.292480,190.559235 25.379805,189.704132 
	C23.330637,187.784256 24.066540,186.672775 26.820431,185.998047 
	C28.770519,187.632828 30.343243,189.306000 32.044273,191.254547 
z"/>
<path fill="#EEEFEB" opacity="1.000000" stroke="none" 
	d="
M186.129593,27.463299 
	C186.518372,24.047289 188.054611,22.350607 189.791229,26.134764 
	C190.632797,27.968550 196.977859,27.890165 191.882141,32.060291 
	C189.776489,30.698456 188.037369,29.215155 186.129593,27.463299 
z"/>
<path fill="#686257" opacity="1.000000" stroke="none" 
	d="
M175.998627,54.010773 
	C175.623047,55.925102 175.252563,57.829655 174.444061,59.550014 
	C172.332947,56.955116 170.659836,54.544411 168.986710,52.133701 
	C170.100037,51.761993 171.213364,51.390282 172.699066,51.005295 
	C173.610870,51.525711 174.150314,52.059402 174.992935,53.008209 
	C175.508713,53.636341 175.738312,53.829102 175.984924,54.001602 
	C175.984924,54.001602 176.003723,54.000996 175.998627,54.010773 
z"/>
<path fill="#665F55" opacity="1.000000" stroke="none" 
	d="
M56.127556,173.521774 
	C55.578293,174.301163 55.029030,175.080551 54.119095,175.988495 
	C53.758419,176.117035 53.859764,175.985001 53.748703,175.822357 
	C53.335751,175.453766 53.033855,175.247787 52.731960,175.041809 
	C51.872868,173.884415 51.013775,172.727020 50.134544,171.254089 
	C50.862183,169.688202 51.609955,168.437866 52.836296,167.387939 
	C54.252422,169.566162 55.189991,171.543961 56.127556,173.521774 
z"/>
<path fill="#CBE191" opacity="1.000000" stroke="none" 
	d="
M137.212433,201.936615 
	C137.643387,200.854202 138.176208,199.414383 139.033279,199.184738 
	C140.427475,198.811172 142.033737,199.229111 144.083557,200.490402 
	C141.875656,201.034485 139.667770,201.578552 137.212433,201.936615 
z"/>
<path fill="#CBE191" opacity="1.000000" stroke="none" 
	d="
M25.678596,89.364563 
	C24.266163,89.273201 23.142731,89.161163 21.873562,89.034592 
	C23.117331,87.928780 24.311718,86.866882 25.461832,85.844337 
	C24.851692,86.903198 30.640306,87.167267 25.678596,89.364563 
z"/>
<path fill="#CBE191" opacity="1.000000" stroke="none" 
	d="
M19.853567,92.047318 
	C20.518885,92.975044 20.996008,94.113739 21.473131,95.252434 
	C20.997154,95.397125 20.521179,95.541817 20.045202,95.686508 
	C19.918592,94.543770 19.791983,93.401024 19.853567,92.047318 
z"/>
<path fill="#CBE191" opacity="1.000000" stroke="none" 
	d="
M30.393089,87.811279 
	C30.354595,87.091316 30.479067,86.536667 30.603537,85.982018 
	C30.870392,86.104668 31.137247,86.227310 31.404102,86.349953 
	C31.121420,86.892166 30.838736,87.434387 30.393089,87.811279 
z"/>
<path fill="#CCE293" opacity="1.000000" stroke="none" 
	d="
M193.998169,141.998169 
	C194.254562,141.309723 194.512772,140.623108 194.770996,139.936493 
	C195.032852,140.065826 195.294693,140.195175 195.556534,140.324509 
	C195.218597,140.837952 194.880646,141.351379 194.273193,141.934052 
	C194.003662,142.003265 194.000000,142.000000 193.998169,141.998169 
z"/>
<path fill="#CBE191" opacity="1.000000" stroke="none" 
	d="
M143.069305,193.354599 
	C142.825058,192.968307 142.790176,192.572617 142.755310,192.176910 
	C143.023102,192.167694 143.290878,192.158478 143.558670,192.149261 
	C143.465332,192.547897 143.372009,192.946548 143.069305,193.354599 
z"/>
<path fill="#CCE293" opacity="1.000000" stroke="none" 
	d="
M185.973145,151.806122 
	C186.006104,151.999390 185.514282,151.998962 185.268646,151.999481 
	C185.328735,151.870956 185.634445,151.741913 185.973145,151.806122 
z"/>
<path fill="#CBE191" opacity="1.000000" stroke="none" 
	d="
M17.120098,93.456924 
	C17.154760,93.529068 16.849762,93.549736 16.849762,93.549736 
	C16.849762,93.549736 17.085438,93.384773 17.120098,93.456924 
z"/>
<path fill="#3C3031" opacity="1.000000" stroke="none" 
	d="
M177.899628,148.724670 
	C177.582306,148.734924 177.530273,148.494980 177.796661,148.134125 
	C177.900604,148.037094 177.950439,148.498337 177.899628,148.724670 
z"/>
<path fill="#CBE191" opacity="1.000000" stroke="none" 
	d="
M28.005161,82.992744 
	C28.005161,82.992744 28.266937,83.165413 28.266937,83.165413 
	C28.266937,83.165413 28.069515,83.154572 28.034729,83.077286 
	C27.999941,83.000000 28.005161,82.992744 28.005161,82.992744 
z"/>
<path fill="#CBE191" opacity="1.000000" stroke="none" 
	d="
M27.996208,83.002731 
	C27.992477,83.005463 27.732706,82.837288 27.732706,82.837288 
	C27.732706,82.837288 27.926682,82.847168 27.965921,82.919952 
	C28.005161,82.992744 27.999941,83.000000 27.996208,83.002731 
z"/>
<path fill="#CBE191" opacity="1.000000" stroke="none" 
	d="
M145.493469,196.486542 
	C145.515686,196.477676 145.471237,196.495392 145.493469,196.486542 
z"/>
<path fill="#3C3031" opacity="1.000000" stroke="none" 
	d="
M68.738777,67.033951 
	C68.975647,67.081154 68.633949,67.317993 68.633949,67.317993 
	C68.633949,67.317993 68.245285,67.265465 68.136978,67.174561 
	C68.028671,67.083649 68.501907,66.986748 68.738777,67.033951 
z"/>
<path fill="#3C3031" opacity="1.000000" stroke="none" 
	d="
M60.735847,67.103073 
	C60.789875,67.378410 60.567200,67.463821 60.185307,67.308624 
	C60.073799,67.236923 60.506851,67.082047 60.735847,67.103073 
z"/>
<path fill="#524C3F" opacity="1.000000" stroke="none" 
	d="
M52.859535,175.307678 
	C53.033855,175.247787 53.335751,175.453766 53.820427,175.864578 
	C53.664513,175.904129 53.325813,175.738846 52.859535,175.307678 
z"/>
<path fill="#CAE586" opacity="1.000000" stroke="none" 
	d="
M139.085480,161.888397 
	C139.039825,161.690125 139.218124,161.329636 139.716568,160.933380 
	C139.794281,161.173798 139.551849,161.450012 139.085480,161.888397 
z"/>
<path fill="#3C3031" opacity="1.000000" stroke="none" 
	d="
M177.943176,59.737396 
	C177.626160,59.776787 177.548492,59.539291 177.777313,59.151787 
	C177.874512,59.045982 177.973236,59.504711 177.943176,59.737396 
z"/>
<path fill="#CBE191" opacity="1.000000" stroke="none" 
	d="
M18.487831,99.506302 
	C18.478968,99.483482 18.496695,99.529129 18.487831,99.506302 
z"/>
<path fill="#524C3F" opacity="1.000000" stroke="none" 
	d="
M175.914062,53.759666 
	C175.738312,53.829102 175.508713,53.636341 175.147888,53.254032 
	C175.280853,53.229069 175.562027,53.373398 175.914062,53.759666 
z"/>
<path fill="#F4F4F4" opacity="1.000000" stroke="none" 
	d="
M164.945587,155.899261 
	C154.681259,156.034485 144.417282,156.215347 134.152512,156.291183 
	C125.200706,156.357315 116.248009,156.305237 107.295708,156.304932 
	C95.207718,156.304520 93.183014,154.222626 92.919197,142.260742 
	C92.879272,140.450516 91.558311,138.668549 90.483765,136.529022 
	C90.135025,135.569778 90.132423,134.955002 90.129822,134.340225 
	C93.406929,133.762100 92.976784,131.223770 92.977882,128.928802 
	C92.988342,107.119354 92.989662,85.309906 93.002159,63.500454 
	C93.007355,54.432644 96.199989,51.258522 105.353828,51.252323 
	C123.500862,51.240036 141.647934,51.235638 159.794922,51.268593 
	C161.610016,51.271893 163.424606,51.554447 165.577087,52.237686 
	C166.596161,56.165821 167.848343,59.560349 167.868164,62.962059 
	C168.017654,88.615166 168.088806,114.271698 167.773911,139.922119 
	C167.708389,145.258606 165.932983,150.574097 164.945587,155.899261 
M107.915863,105.945206 
	C125.245399,105.870308 142.574936,105.795410 160.573441,105.494835 
	C160.370651,104.384201 160.167877,103.273567 159.506927,101.965416 
	C159.506927,101.965416 159.018173,102.065735 158.092926,101.890617 
	C141.390427,101.949005 124.687935,102.007393 107.254440,101.988960 
	C107.175255,103.216125 107.096069,104.443283 107.915863,105.945206 
M149.083725,70.912918 
	C136.111221,70.904037 123.138084,70.834885 110.167038,70.968269 
	C108.671577,70.983658 107.187714,72.126549 105.698479,72.746674 
	C107.243591,73.496742 108.778435,74.871353 110.335449,74.896950 
	C121.641853,75.082809 132.954071,75.084755 144.260880,74.911934 
	C146.194260,74.882378 148.110580,73.738800 150.814682,73.027481 
	C152.482697,73.313995 154.150711,73.600502 155.818726,73.887016 
	C155.918350,73.384460 156.017975,72.881897 156.117584,72.379341 
	C154.081055,71.948265 152.044510,71.517197 149.083725,70.912918 
M117.518143,132.841721 
	C115.023117,132.841812 112.499229,132.614670 110.043800,132.926498 
	C108.550293,133.116165 107.162415,134.137543 105.727089,134.785324 
	C107.149231,135.508606 108.565445,136.846954 109.994431,136.860718 
	C125.628387,137.011353 141.264877,137.010757 156.898865,136.862274 
	C158.337845,136.848618 159.764465,135.533173 161.196823,134.822205 
	C159.776016,134.162079 158.361679,132.945465 156.933380,132.928833 
	C144.127380,132.779724 131.318924,132.841751 117.518143,132.841721 
z"/>
<path fill="#F3F3F3" opacity="1.000000" stroke="none" 
	d="
M56.475876,173.706955 
	C55.189991,171.543961 54.252422,169.566162 53.144527,167.291962 
	C53.074242,153.546463 53.217007,140.097519 53.262856,126.648232 
	C53.313255,111.863014 53.242554,97.077408 53.287663,82.292160 
	C53.311089,74.613693 56.944168,71.022682 64.549377,71.002098 
	C69.698921,70.988159 74.848595,71.017975 80.465858,71.555527 
	C80.929848,78.336395 80.926186,84.589943 80.922523,90.843498 
	C76.115463,90.843498 71.308403,90.843498 66.501343,90.843498 
	C66.222191,91.340981 65.943039,91.838470 65.663879,92.335953 
	C66.950577,93.229271 68.169792,94.745514 69.537209,94.893639 
	C72.992584,95.267921 76.514618,95.026917 80.481064,95.551346 
	C80.942665,104.662247 80.933159,113.254219 80.923645,121.846199 
	C76.115746,121.846199 71.307846,121.846199 66.499947,121.846199 
	C66.225426,122.344635 65.950912,122.843071 65.676392,123.341499 
	C66.958946,124.230324 68.174828,125.739967 69.537125,125.886269 
	C72.993614,126.257477 76.515732,126.017601 80.479675,126.548157 
	C80.966499,135.385590 80.985207,143.697281 81.003914,152.008972 
	C79.008392,152.103745 77.012863,152.198517 74.174576,152.225433 
	C71.266121,152.741058 69.200424,153.324539 67.111450,154.325348 
	C69.383690,159.413452 73.202263,156.380249 76.381699,156.579987 
	C77.706367,156.579315 79.031029,156.578659 80.698761,157.165955 
	C80.840729,166.656891 81.170403,166.997482 90.181374,166.996292 
	C104.801758,166.994339 119.422142,166.981979 134.042526,166.974014 
	C133.374420,172.740448 130.351196,175.899139 124.817757,175.924271 
	C104.151665,176.018158 83.484474,176.017365 62.819000,175.869781 
	C60.816124,175.855484 58.822250,174.581421 56.475876,173.706955 
z"/>
<path fill="#B9B9B9" opacity="1.000000" stroke="none" 
	d="
M165.318481,155.989594 
	C165.932983,150.574097 167.708389,145.258606 167.773911,139.922119 
	C168.088806,114.271698 168.017654,88.615166 167.868164,62.962059 
	C167.848343,59.560349 166.596161,56.165821 165.968445,52.365963 
	C166.765305,51.955212 167.508408,51.946468 168.619110,52.035713 
	C170.659836,54.544411 172.332947,56.955116 174.119431,59.707809 
	C174.141220,88.366180 174.055099,116.682587 173.954056,144.998932 
	C173.929855,151.782791 171.860916,154.525406 165.318481,155.989594 
z"/>
<path fill="#B9B8B8" opacity="1.000000" stroke="none" 
	d="
M81.393929,152.096527 
	C80.985207,143.697281 80.966499,135.385590 80.935493,126.615509 
	C83.372879,126.034958 85.822571,125.912788 88.495895,125.779465 
	C88.822235,128.636688 89.117760,131.224182 89.771553,134.075943 
	C90.132423,134.955002 90.135025,135.569778 90.070900,136.485382 
	C89.534874,141.738770 89.065575,146.691315 88.545082,152.184082 
	C86.861458,152.184082 84.322701,152.184082 81.393929,152.096527 
z"/>
<path fill="#B7B7B7" opacity="1.000000" stroke="none" 
	d="
M81.348557,121.898651 
	C80.933159,113.254219 80.942665,104.662247 80.937744,95.611679 
	C83.385796,95.153099 85.848297,95.153099 88.610786,95.153099 
	C88.610786,103.648407 88.610786,111.899063 88.610786,120.820663 
	C86.459015,121.176430 84.116241,121.563774 81.348557,121.898651 
z"/>
<path fill="#B7B7B7" opacity="1.000000" stroke="none" 
	d="
M81.363281,90.893799 
	C80.926186,84.589943 80.929848,78.336395 80.924446,71.625397 
	C83.361580,71.167953 85.807777,71.167953 88.900047,71.167953 
	C88.900047,76.924126 89.202835,82.501694 88.809097,88.029648 
	C88.462578,92.894760 84.307236,90.311180 81.363281,90.893799 
z"/>
<path fill="#B6B5B5" opacity="1.000000" stroke="none" 
	d="
M134.154251,166.529816 
	C119.422142,166.981979 104.801758,166.994339 90.181374,166.996292 
	C81.170403,166.997482 80.840729,166.656891 81.071426,157.307678 
	C86.497589,156.516174 91.750069,155.801788 96.885254,159.066132 
	C99.287933,160.593475 102.926628,160.502975 106.016258,160.561829 
	C115.247841,160.737686 124.484924,160.625031 134.265976,160.625031 
	C134.265976,162.881546 134.265976,164.483582 134.154251,166.529816 
z"/>
<path fill="#B6B5B5" opacity="1.000000" stroke="none" 
	d="
M76.256470,156.310364 
	C73.202263,156.380249 69.383690,159.413452 67.539276,154.376678 
	C70.008575,153.993042 72.026779,153.975372 74.044975,153.957703 
	C74.740402,154.652054 75.435822,155.346405 76.256470,156.310364 
z"/>
<path fill="#88847F" opacity="1.000000" stroke="none" 
	d="
M74.075974,153.698212 
	C72.026779,153.975372 70.008575,153.993042 67.562553,153.959381 
	C69.200424,153.324539 71.266121,152.741058 73.750137,152.280731 
	C74.147964,152.748856 74.127472,153.093781 74.075974,153.698212 
z"/>
<path fill="#C4DD82" opacity="1.000000" stroke="none" 
	d="
M165.997650,166.002563 
	C167.838531,166.059326 169.749603,165.859741 171.483368,166.323334 
	C171.999298,166.461258 172.017563,168.460403 172.263870,169.606750 
	C171.428024,169.514709 170.533936,169.193405 169.770721,169.387314 
	C168.763672,169.643143 167.859253,170.303131 166.462692,171.019028 
	C166.300598,169.512329 166.151398,168.125458 166.003448,166.366928 
	C166.004715,165.995270 166.000000,166.000000 165.997650,166.002563 
z"/>
<path fill="#C4DD82" opacity="1.000000" stroke="none" 
	d="
M58.001709,58.002365 
	C58.003418,58.004730 57.839264,58.265137 57.839264,58.265137 
	C57.839264,58.265137 57.849892,58.073704 57.922676,58.035244 
	C57.995457,57.996784 58.000000,58.000000 58.001709,58.002365 
z"/>
<path fill="#4B4438" opacity="1.000000" stroke="none" 
	d="
M118.014671,132.841721 
	C131.318924,132.841751 144.127380,132.779724 156.933380,132.928833 
	C158.361679,132.945465 159.776016,134.162079 161.196823,134.822205 
	C159.764465,135.533173 158.337845,136.848618 156.898865,136.862274 
	C141.264877,137.010757 125.628387,137.011353 109.994431,136.860718 
	C108.565445,136.846954 107.149231,135.508606 105.727089,134.785324 
	C107.162415,134.137543 108.550293,133.116165 110.043800,132.926498 
	C112.499229,132.614670 115.023117,132.841812 118.014671,132.841721 
z"/>
<path fill="#4B4539" opacity="1.000000" stroke="none" 
	d="
M150.034790,73.109863 
	C148.110580,73.738800 146.194260,74.882378 144.260880,74.911934 
	C132.954071,75.084755 121.641853,75.082809 110.335449,74.896950 
	C108.778435,74.871353 107.243591,73.496742 105.698479,72.746674 
	C107.187714,72.126549 108.671577,70.983658 110.167038,70.968269 
	C123.138084,70.834885 136.111221,70.904037 149.542664,71.336876 
	C150.012650,72.210510 150.023727,72.660187 150.034790,73.109863 
z"/>
<path fill="#4B4539" opacity="1.000000" stroke="none" 
	d="
M107.985443,102.065781 
	C124.687935,102.007393 141.390427,101.949005 158.657471,102.081078 
	C159.222031,102.271538 159.594925,102.376396 159.594925,102.376396 
	C159.594925,102.376396 159.965088,102.162933 159.965088,102.162933 
	C160.167877,103.273567 160.370651,104.384201 159.883148,105.416092 
	C151.413071,105.224701 143.632721,104.992912 135.853622,105.029724 
	C126.255608,105.075134 116.658638,105.343994 107.072952,105.144890 
	C107.384933,103.870918 107.685188,102.968346 107.985443,102.065781 
z"/>
<path fill="#312815" opacity="1.000000" stroke="none" 
	d="
M107.061218,105.516296 
	C116.658638,105.343994 126.255608,105.075134 135.853622,105.029724 
	C143.632721,104.992912 151.413071,105.224701 159.548676,105.528931 
	C142.574936,105.795410 125.245399,105.870308 107.481964,105.770584 
	C107.048065,105.595963 107.061218,105.516296 107.061218,105.516296 
z"/>
<path fill="#3F382B" opacity="1.000000" stroke="none" 
	d="
M150.424744,73.068672 
	C150.023727,72.660187 150.012650,72.210510 150.004791,71.423477 
	C152.044510,71.517197 154.081055,71.948265 156.117584,72.379341 
	C156.017975,72.881897 155.918350,73.384460 155.818726,73.887016 
	C154.150711,73.600502 152.482697,73.313995 150.424744,73.068672 
z"/>
<path fill="#372F1E" opacity="1.000000" stroke="none" 
	d="
M107.072952,105.144890 
	C107.061218,105.516296 107.048065,105.595963 107.032471,105.633209 
	C107.096069,104.443283 107.175255,103.216125 107.619942,102.027374 
	C107.685188,102.968346 107.384933,103.870918 107.072952,105.144890 
z"/>
<path fill="#372F1E" opacity="1.000000" stroke="none" 
	d="
M159.736008,102.064178 
	C159.965088,102.162933 159.594925,102.376396 159.594925,102.376396 
	C159.594925,102.376396 159.222031,102.271538 159.120102,102.168640 
	C159.018173,102.065735 159.506927,101.965416 159.736008,102.064178 
z"/>
</svg>