<svg version="1.1" id="Layer_1" xmlns="http://www.w3.org/2000/svg" xmlns:xlink="http://www.w3.org/1999/xlink" x="0px" y="0px"
	 width="100%" viewBox="0 0 227 222" enable-background="new 0 0 227 222" xml:space="preserve">
<path fill="#171715" opacity="1.000000" stroke="none" 
	d="
M228.000000,98.000000 
	C228.000000,109.020897 228.000000,120.041786 227.603577,131.540833 
	C226.848816,133.087173 226.347107,134.130127 226.153854,135.227402 
	C223.704575,149.134323 218.747543,162.091431 211.363251,174.105377 
	C196.806747,197.788269 176.092072,213.777023 150.000000,223.000000 
	C148.933334,223.000000 147.866653,223.000000 146.218781,222.670349 
	C144.676758,220.206650 142.950836,218.095139 142.887238,215.934677 
	C142.608139,206.450363 142.746704,196.951172 142.856873,187.458801 
	C142.945694,179.805145 141.501114,172.633148 136.217636,165.724625 
	C140.364151,164.671173 144.120712,164.048965 147.628418,162.753128 
	C153.986038,160.404465 160.780060,158.551712 166.363403,154.913544 
	C188.213318,140.675812 194.074081,103.676048 178.263657,82.219856 
	C176.270065,79.514343 176.022217,77.215775 176.382767,73.764114 
	C177.078278,67.106049 176.241608,60.273041 175.863907,53.522427 
	C175.556015,48.019825 171.891602,46.734253 167.560318,48.407795 
	C160.163788,51.265705 153.061508,54.876751 145.748505,57.965160 
	C143.945862,58.726448 141.661972,59.335865 139.846527,58.924389 
	C124.008698,55.334663 108.112717,54.786095 92.309341,58.480370 
	C87.618034,59.577034 84.364235,58.343372 80.348557,56.407898 
	C73.398773,53.058239 65.986977,50.628551 58.669380,48.101368 
	C56.066216,47.202347 54.599232,48.655762 53.757553,51.471870 
	C51.463791,59.146389 51.025055,66.762192 52.551327,74.649887 
	C52.962658,76.775620 52.353779,79.676544 51.115002,81.457947 
	C29.267742,112.875015 45.753166,155.287430 82.983971,163.193192 
	C86.122490,163.859650 89.204979,164.789963 92.548500,165.658737 
	C87.682755,172.896317 87.911499,183.209930 76.161575,184.011673 
	C73.654015,184.182770 72.244247,182.496048 70.291885,183.045074 
	C68.403740,183.576065 66.391891,185.200729 64.818680,184.807495 
	C63.667885,184.519867 63.470734,181.440445 62.275246,180.127350 
	C57.593830,174.985413 52.312637,170.345078 48.017292,164.914841 
	C45.869274,162.199280 44.313229,161.352814 40.817657,163.674408 
	C41.143250,162.006577 41.301460,161.196136 41.648273,159.419586 
	C38.000439,159.585571 34.556328,159.742264 31.112215,159.898972 
	C31.831425,162.489990 32.516815,163.755905 33.579185,164.400192 
	C41.229198,169.039566 45.027359,176.430481 49.066761,184.038788 
	C51.316345,188.275894 55.644276,192.623703 60.021931,194.224899 
	C66.188797,196.480515 73.264366,196.291748 79.964943,197.023972 
	C81.999603,197.246323 84.079094,197.058426 86.329903,197.058426 
	C86.329903,203.671860 86.193611,209.670044 86.381500,215.658066 
	C86.492546,219.197037 85.416222,221.717010 82.000000,223.000000 
	C80.285645,223.000000 78.571281,223.000000 76.410271,222.633728 
	C75.445396,221.889725 74.977898,221.388474 74.401733,221.151901 
	C35.016262,204.980316 11.047318,176.116638 2.744210,134.291794 
	C2.576256,133.445770 1.599452,132.760345 1.000002,132.000000 
	C1.000000,130.285645 1.000000,128.571274 1.321205,126.338150 
	C1.428273,124.879585 1.214136,123.939789 1.000000,123.000000 
	C1.000000,114.979103 1.000000,106.958199 1.396553,98.458633 
	C2.101642,97.239334 2.559891,96.525368 2.697180,95.754242 
	C8.691847,62.083786 26.219189,36.069077 55.098972,17.935097 
	C65.565674,11.362920 76.546547,5.608260 89.396751,4.648723 
	C92.338913,4.429029 95.136093,2.267719 98.000000,1.000000 
	C108.020897,1.000000 118.041786,1.000000 128.668976,1.369976 
	C150.356506,4.882030 169.474792,12.739959 185.960114,26.300634 
	C207.431824,43.963062 220.943985,66.508354 226.136902,93.937424 
	C226.405914,95.358269 227.363174,96.648796 228.000000,98.000000 
z"/>
<path fill="#FDFDFD" opacity="1.000000" stroke="none" 
	d="
M82.468658,223.000000 
	C85.416222,221.717010 86.492546,219.197037 86.381500,215.658066 
	C86.193611,209.670044 86.329903,203.671860 86.329903,197.058426 
	C84.079094,197.058426 81.999603,197.246323 79.964943,197.023972 
	C73.264366,196.291748 66.188797,196.480515 60.021931,194.224899 
	C55.644276,192.623703 51.316345,188.275894 49.066761,184.038788 
	C45.027359,176.430481 41.229198,169.039566 33.579185,164.400192 
	C32.516815,163.755905 31.831425,162.489990 31.112215,159.898972 
	C34.556328,159.742264 38.000439,159.585571 41.648273,159.419586 
	C41.301460,161.196136 41.143250,162.006577 40.817657,163.674408 
	C44.313229,161.352814 45.869274,162.199280 48.017292,164.914841 
	C52.312637,170.345078 57.593830,174.985413 62.275246,180.127350 
	C63.470734,181.440445 63.667885,184.519867 64.818680,184.807495 
	C66.391891,185.200729 68.403740,183.576065 70.291885,183.045074 
	C72.244247,182.496048 73.654015,184.182770 76.161575,184.011673 
	C87.911499,183.209930 87.682755,172.896317 92.548500,165.658737 
	C89.204979,164.789963 86.122490,163.859650 82.983971,163.193192 
	C45.753166,155.287430 29.267742,112.875015 51.115002,81.457947 
	C52.353779,79.676544 52.962658,76.775620 52.551327,74.649887 
	C51.025055,66.762192 51.463791,59.146389 53.757553,51.471870 
	C54.599232,48.655762 56.066216,47.202347 58.669380,48.101368 
	C65.986977,50.628551 73.398773,53.058239 80.348557,56.407898 
	C84.364235,58.343372 87.618034,59.577034 92.309341,58.480370 
	C108.112717,54.786095 124.008698,55.334663 139.846527,58.924389 
	C141.661972,59.335865 143.945862,58.726448 145.748505,57.965160 
	C153.061508,54.876751 160.163788,51.265705 167.560318,48.407795 
	C171.891602,46.734253 175.556015,48.019825 175.863907,53.522427 
	C176.241608,60.273041 177.078278,67.106049 176.382767,73.764114 
	C176.022217,77.215775 176.270065,79.514343 178.263657,82.219856 
	C194.074081,103.676048 188.213318,140.675812 166.363403,154.913544 
	C160.780060,158.551712 153.986038,160.404465 147.628418,162.753128 
	C144.120712,164.048965 140.364151,164.671173 136.217636,165.724625 
	C141.501114,172.633148 142.945694,179.805145 142.856873,187.458801 
	C142.746704,196.951172 142.608139,206.450363 142.887238,215.934677 
	C142.950836,218.095139 144.676758,220.206650 145.818787,222.670349 
	C124.979103,223.000000 103.958214,223.000000 82.468658,223.000000 
z"/>
<path fill="#FDFDFD" opacity="1.000000" stroke="none" 
	d="
M97.531342,1.000000 
	C95.136093,2.267719 92.338913,4.429029 89.396751,4.648723 
	C76.546547,5.608260 65.565674,11.362920 55.098972,17.935097 
	C26.219189,36.069077 8.691847,62.083786 2.697180,95.754242 
	C2.559891,96.525368 2.101642,97.239334 1.396553,97.989983 
	C1.000000,65.739738 1.000000,33.479469 1.000000,1.000000 
	C33.020561,1.000000 65.041618,1.000000 97.531342,1.000000 
z"/>
<path fill="#FDFDFD" opacity="1.000000" stroke="none" 
	d="
M228.000000,97.531342 
	C227.363174,96.648796 226.405914,95.358269 226.136902,93.937424 
	C220.943985,66.508354 207.431824,43.963062 185.960114,26.300634 
	C169.474792,12.739959 150.356506,4.882030 129.137634,1.369976 
	C161.926178,1.000000 194.852371,1.000000 228.000000,1.000000 
	C228.000000,33.020554 228.000000,65.041618 228.000000,97.531342 
z"/>
<path fill="#FDFDFD" opacity="1.000000" stroke="none" 
	d="
M1.000002,132.468658 
	C1.599452,132.760345 2.576256,133.445770 2.744210,134.291794 
	C11.047318,176.116638 35.016262,204.980316 74.401733,221.151901 
	C74.977898,221.388474 75.445396,221.889725 75.981812,222.633728 
	C51.066059,223.000000 26.132116,223.000000 1.000000,223.000000 
	C1.000000,192.979401 1.000000,162.958359 1.000002,132.468658 
z"/>
<path fill="#FDFDFD" opacity="1.000000" stroke="none" 
	d="
M150.468658,223.000000 
	C176.092072,213.777023 196.806747,197.788269 211.363251,174.105377 
	C218.747543,162.091431 223.704575,149.134323 226.153854,135.227402 
	C226.347107,134.130127 226.848816,133.087173 227.603577,132.009491 
	C228.000000,162.254608 228.000000,192.509216 228.000000,223.000000 
	C202.312927,223.000000 176.625122,223.000000 150.468658,223.000000 
z"/>
<path fill="#979796" opacity="1.000000" stroke="none" 
	d="
M1.000000,123.375000 
	C1.214136,123.939789 1.428273,124.879585 1.321205,125.909683 
	C1.000000,125.250000 1.000000,124.500000 1.000000,123.375000 
z"/>
</svg>