<svg version="1.1" id="Layer_1" xmlns="http://www.w3.org/2000/svg" xmlns:xlink="http://www.w3.org/1999/xlink" x="0px" y="0px"
	 width="100%" viewBox="0 0 303 166" enable-background="new 0 0 303 166" xml:space="preserve">
<path fill="#BD4043" opacity="1.000000" stroke="none" 
	d="
M151.000000,0.999999 
	C152.066788,1.000000 153.133575,1.000000 154.785034,1.284638 
	C157.175659,3.673329 159.206406,5.624931 160.752731,7.905054 
	C175.903290,30.245096 190.973145,52.639877 206.216125,75.315971 
	C223.260330,100.707146 240.154327,125.801453 257.022583,151.235107 
	C255.697601,153.074966 254.398361,154.575470 252.793732,155.896698 
	C209.351501,132.963257 166.198822,110.239037 123.092628,87.426918 
	C115.471153,83.393570 108.043747,78.993523 100.665245,74.438095 
	C116.197456,51.177620 131.575623,28.231382 147.018173,5.328558 
	C148.101807,3.721430 149.661621,2.435361 151.000000,0.999999 
z"/>
<path fill="#FFFEFE" opacity="1.000000" stroke="none" 
	d="
M253.099121,156.075974 
	C254.398361,154.575470 255.697601,153.074966 257.268616,150.991409 
	C267.593201,124.750633 277.602570,99.075768 287.716553,73.442169 
	C293.050171,59.924278 298.566284,46.478397 304.000000,33.000000 
	C304.000000,77.632652 304.000000,122.265312 304.000000,166.948975 
	C203.110947,166.948975 102.221848,166.948975 1.000000,166.948975 
	C1.000000,121.312981 1.000000,75.625145 1.200984,29.467218 
	C1.401967,28.997122 1.803945,28.996853 1.839398,29.393059 
	C2.130326,30.910744 2.246053,32.087055 2.661461,33.145779 
	C17.967413,72.155060 33.326103,111.143677 48.605267,150.163422 
	C51.011856,156.309341 55.690132,159.554504 61.856571,160.010376 
	C86.918793,161.863205 111.983604,163.999115 137.087906,164.886139 
	C170.405945,166.063370 203.688232,164.246216 236.856247,160.871979 
	C242.466705,160.301224 248.717743,161.129364 253.099121,156.075974 
z"/>
<path fill="#FFFEFE" opacity="1.000000" stroke="none" 
	d="
M1.803945,28.996853 
	C1.803945,28.996853 1.401967,28.997122 1.200984,28.998562 
	C1.000000,19.689659 1.000000,10.379320 1.000000,1.000000 
	C50.687542,1.000000 100.375114,1.000000 150.531342,0.999999 
	C149.661621,2.435361 148.101807,3.721430 147.018173,5.328558 
	C131.575623,28.231382 116.197456,51.177620 100.341255,74.471344 
	C98.089218,73.998322 96.260063,73.242668 94.516083,72.325127 
	C66.420479,57.543510 38.322929,42.765438 10.265905,27.910866 
	C7.035281,26.200438 4.157660,24.948101 1.803945,28.996853 
z"/>
<path fill="#FFFEFE" opacity="1.000000" stroke="none" 
	d="
M206.065933,75.019104 
	C190.973145,52.639877 175.903290,30.245096 160.752731,7.905054 
	C159.206406,5.624931 157.175659,3.673329 155.184845,1.284638 
	C204.542908,1.000000 254.085815,1.000000 304.000000,1.000000 
	C304.000000,9.684032 304.000000,18.373354 303.684937,27.380054 
	C300.519989,24.601175 297.896179,26.800133 295.342010,28.139027 
	C265.572174,43.744457 235.821594,59.386639 206.065933,75.019104 
z"/>
<path fill="#7E363C" opacity="1.000000" stroke="none" 
	d="
M206.216125,75.315964 
	C235.821594,59.386639 265.572174,43.744457 295.342010,28.139027 
	C297.896179,26.800133 300.519989,24.601175 303.684937,27.848717 
	C304.000000,29.388889 304.000000,30.777779 304.000000,32.583336 
	C298.566284,46.478397 293.050171,59.924278 287.716553,73.442169 
	C277.602570,99.075768 267.593201,124.750633 257.294373,150.652054 
	C240.154327,125.801453 223.260330,100.707146 206.216125,75.315964 
z"/>
<path fill="#FF4B4B" opacity="1.000000" stroke="none" 
	d="
M1.839398,29.393059 
	C4.157660,24.948101 7.035281,26.200438 10.265905,27.910866 
	C38.322929,42.765438 66.420479,57.543510 94.516083,72.325127 
	C96.260063,73.242668 98.089218,73.998322 100.202736,74.796051 
	C108.043747,78.993523 115.471153,83.393570 123.092628,87.426918 
	C166.198822,110.239037 209.351501,132.963257 252.793732,155.896698 
	C248.717743,161.129364 242.466705,160.301224 236.856247,160.871979 
	C203.688232,164.246216 170.405945,166.063370 137.087906,164.886139 
	C111.983604,163.999115 86.918793,161.863205 61.856571,160.010376 
	C55.690132,159.554504 51.011856,156.309341 48.605267,150.163422 
	C33.326103,111.143677 17.967413,72.155060 2.661461,33.145779 
	C2.246053,32.087055 2.130326,30.910744 1.839398,29.393059 
z"/>
</svg>